<?xml version="1.0" encoding="UTF-8" standalone="no"?>
<!-- Created with Inkscape (http://www.inkscape.org/) -->

<svg
   xmlns:dc="http://purl.org/dc/elements/1.1/"
   xmlns:cc="http://creativecommons.org/ns#"
   xmlns:rdf="http://www.w3.org/1999/02/22-rdf-syntax-ns#"
   xmlns:svg="http://www.w3.org/2000/svg"
   xmlns="http://www.w3.org/2000/svg"
   xmlns:sodipodi="http://sodipodi.sourceforge.net/DTD/sodipodi-0.dtd"
   xmlns:inkscape="http://www.inkscape.org/namespaces/inkscape"
   width="18mm"
   height="22mm"
   viewBox="0 0 18 22"
   version="1.1"
   id="svg8"
   inkscape:version="0.92.3 (2405546, 2018-03-11)"
   sodipodi:docname="logo.svg">
  <defs
     id="defs2" />
  <sodipodi:namedview
     id="base"
     pagecolor="#ffffff"
     bordercolor="#666666"
     borderopacity="1.0"
     inkscape:pageopacity="0.0"
     inkscape:pageshadow="2"
     inkscape:zoom="0.49497475"
     inkscape:cx="285.3017"
     inkscape:cy="718.19302"
     inkscape:document-units="mm"
     inkscape:current-layer="layer1"
     showgrid="false"
     inkscape:window-width="1920"
     inkscape:window-height="1017"
     inkscape:window-x="1912"
     inkscape:window-y="-8"
     inkscape:window-maximized="1" />
  <metadata
     id="metadata5">
    <rdf:RDF>
      <cc:Work
         rdf:about="">
        <dc:format>image/svg+xml</dc:format>
        <dc:type
           rdf:resource="http://purl.org/dc/dcmitype/StillImage" />
        <dc:title></dc:title>
      </cc:Work>
    </rdf:RDF>
  </metadata>
  <g
     inkscape:label="Layer 1"
     inkscape:groupmode="layer"
     id="layer1"
     transform="translate(0,-275)">
    <path
       style="fill:#000000;fill-opacity:1;stroke:none;stroke-width:0.60299999;stroke-linecap:round;stroke-linejoin:round;stroke-miterlimit:4;stroke-dasharray:none;stroke-dashoffset:0;stroke-opacity:1"
       id="path4528"
       d="m 8.0211971,294.18132 c -0.102401,-0.0168 -0.206455,-0.0255 -0.307205,-0.0503 -0.320767,-0.0791 -0.812544,-0.25403 -1.106265,-0.36503 -0.223531,-0.0845 -0.447792,-0.16789 -0.665926,-0.26547 -0.499627,-0.22349 -0.760393,-0.38425 -1.227347,-0.64819 -0.637217,-0.35295 -1.226657,-0.78136 -1.671271,-1.36235 -0.138918,-0.10052 -0.138729,-0.31351 -0.259537,-0.42337 -0.0075,-0.007 -0.02145,0.01 -0.02993,0.004 -0.06443,-0.0414 -0.198311,-0.1949 -0.235339,-0.2347 -0.340796,-0.35353 -0.604584,-0.76133 -0.810512,-1.20516 -0.171652,-0.36202 -0.27353,-0.74843 -0.401354,-1.12614 -0.140319,-0.43009 -0.17572,-0.88651 -0.2056,-1.33561 -0.03347,-0.48534 -0.01388,-0.97151 4.77e-4,-1.45699 0.03585,-0.35823 -0.0074,-0.72263 0.0353,-1.07997 0.01125,-0.0941 0.0319,-0.18681 0.04784,-0.28022 0.116025,-0.55753 0.417392,-1.04747 0.719578,-1.52142 0.04939,-0.075 0.100543,-0.14883 0.148177,-0.22495 0.144405,-0.23074 0.277101,-0.4638 0.444368,-0.67995 0.160827,-0.20783 0.211801,-0.25172 0.392085,-0.44102 0.462263,-0.48388 1.028776,-0.82859 1.61468,-1.13958 0.506332,-0.26881 1.044796,-0.47002 1.579647,-0.67355 0.422147,-0.13975 0.844011,-0.27854 1.272171,-0.39911 0.615555,-0.15431 1.249734,-0.23644 1.883389,-0.26202 0.501792,-0.0455 0.9873649,0.0166 1.4728379,0.1269 0.02889,0.0299 0.05371,-0.0106 0.08024,-0.007 0.06001,0.009 0.117286,0.0317 0.176668,0.0443 0.194993,0.0415 0.334721,0.0793 0.523089,0.1565 0.05703,0.0197 0.113672,0.0407 0.171098,0.0592 0.173954,0.0562 0.257881,0.0713 0.432631,0.14227 0.233869,0.095 0.455215,0.22208 0.682894,0.33072 0.308287,0.127 0.555667,0.35623 0.835911,0.53111 0.13003,0.006 0.263758,0.14882 0.361765,0.22135 0.05706,0.0422 0.117062,0.0804 0.174191,0.12253 0.05855,0.0589 0.324512,0.32744 0.415891,0.31734 0.298063,0.19345 0.567264,0.41861 0.817359,0.67049 0.176749,0.22129 0.336573,0.44921 0.450405,0.70885 0.01728,0.1 0.06565,0.0931 0.107627,0.14417 0.0488,0.0594 0.08758,0.12636 0.134118,0.18751 0.213648,0.30173 0.377359,0.63524 0.487722,0.98733 0.06551,0.21743 0.145992,0.43008 0.21305,0.6477 0.06114,0.17311 0.05231,0.36047 0.100717,0.53624 0.01722,0.0626 0.04549,0.12159 0.06538,0.18335 0.07725,0.29288 0.114449,0.59496 0.160039,0.89433 0.01863,0.26676 0.01998,0.52998 0.06545,0.79386 0.04398,0.2518 0.042,0.50683 0.02479,0.76079 -0.0071,0.23134 0.01918,0.46567 -0.01826,0.69573 -0.01352,0.0831 -0.03786,0.16397 -0.05679,0.24596 -0.126328,0.33625 -0.26224,0.67055 -0.425382,0.99089 -0.05599,0.0976 -0.09304,0.21061 -0.164957,0.29853 -0.0026,0.003 -7.93e-4,-0.0157 -0.0027,-0.0121 -0.01029,0.0205 -0.07162,0.18304 -0.07582,0.19404 -0.127884,0.2444 -0.308359,0.45433 -0.486799,0.66261 -0.112289,0.096 -0.168,0.22878 -0.23813,0.3557 -0.158766,0.25686 -0.378749,0.46346 -0.614188,0.64934 0.0089,-0.0612 -0.07165,0.0695 -0.07512,0.0412 -0.0019,-0.0142 0.03515,-0.0448 0.02516,-0.0346 -0.05643,0.0574 -0.0788,0.0934 -0.127778,0.16426 -0.09615,0.12992 -0.222136,0.23097 -0.344448,0.30269 -0.02956,0.0173 -0.05284,0.0451 -0.08417,0.059 -0.01394,0.006 0.01974,-0.0233 0.02963,-0.0349 -0.0912,0.0638 -0.188568,0.18968 -0.353944,0.34148 -0.166782,0.11081 -0.181448,0.0916 -0.264956,0.17081 -0.144531,0.13942 -0.324797,0.22478 -0.497094,0.31367 0.01244,-0.0129 0.05522,-0.0372 0.03734,-0.0388 -0.02119,-0.002 -0.03441,0.025 -0.05158,0.0376 -0.126063,0.0921 -0.251767,0.17148 -0.392194,0.2404 -0.03306,0.0185 -0.367883,0.17138 -0.399525,0.15887 -0.03467,-0.0137 0.09759,-0.0715 0.01352,-0.0321 -0.158423,0.1344 -0.337588,0.22796 -0.515602,0.33162 -0.126335,0.0562 -0.251529,0.0948 -0.383262,0.13768 -0.146599,0.0477 -0.159698,0.0786 -0.123267,0.0199 -0.01328,0.003 -0.04747,0.0198 -0.03984,0.009 0.01954,-0.0287 0.05449,-0.0433 0.07972,-0.0672 0.0065,-0.006 -0.01609,0.008 -0.02314,0.0136 -0.03516,0.0275 -0.06823,0.0575 -0.103248,0.0852 -0.06173,0.0487 -0.12861,0.09 -0.194095,0.13341 -0.240124,0.15899 -0.51872,0.16973 -0.792136,0.20951 -0.279654,0.0497 -0.5588809,0.0439 -0.8428649,0.0409 -0.113182,-0.001 0.226426,-0.006 0.3395569,-0.002 0.02745,7.9e-4 -0.05448,0.007 -0.08172,0.0106 -0.373643,0.0941 -0.744859,0.0928 -1.128295,0.0902 -0.176753,-0.0271 -0.354367,-0.0326 -0.532675,-0.0269 0.677987,-0.001 -0.05424,0.007 -0.189796,0.01 -0.0329,5.3e-4 -0.06592,0.004 -0.09869,0.001 -0.189409,-0.0169 -0.380163,-0.0267 -0.567233,-0.0609 -0.06579,-0.012 -0.222802,-0.15654 -0.2993,-0.10423 -0.03982,0.0402 -0.243208,-0.0666 -0.327388,-0.0845 -0.092,-0.048 0.587456,-1.3491 0.679454,-1.30106 v 0 c 0.122964,0.0402 0.152741,0.0217 0.283004,0.0609 0.04423,0.0166 0.08885,0.0323 0.132702,0.0499 0.04778,0.0192 0.09289,0.0648 0.143723,0.0566 0.0074,-0.001 -0.0039,-0.0185 -0.01132,-0.0193 -0.270387,-0.0308 -0.585451,-0.0288 -0.318456,-0.0287 0.320262,-0.002 0.640248,-0.0188 0.960618,-0.006 0.180317,0.01 0.360308,0.0332 0.540961,0.0293 -0.699734,0.002 0.0026,0.0208 0.152367,-0.0434 0.406613,-0.0827 -0.174068,0.0276 0.703825,-0.0584 0.09917,-0.01 -0.199329,-2.2e-4 -0.298926,0.003 -0.02243,8e-4 0.04475,0.004 0.06717,0.004 0.07151,0.002 0.08075,-5.3e-4 0.155031,-0.006 0.115564,-0.0162 0.242353,-0.0566 0.358001,-0.0595 0.02999,-7.9e-4 0.05566,0.0471 0.07933,0.06 0.161955,0.01 0.289942,-0.24963 0.46444,-0.27921 0.36339,-0.15216 0.01491,-0.005 0.202641,-0.0447 0.06531,-0.0138 0.119726,-0.0631 0.185169,-0.0763 0.0094,-0.002 -6.35e-4,0.0193 -9.52e-4,0.0289 0.04587,0.0325 0.182713,-0.0966 0.196587,-0.10396 0.0066,-0.004 0.0124,0.0129 0.01961,0.0109 0.0632,-0.0175 0.06081,-0.0598 0.05834,-0.0159 0.17311,-0.16108 0.35165,-0.29373 0.586003,-0.33771 0.0062,-0.003 0.203279,-0.0857 0.226351,-0.09 0.0073,-0.001 -0.0071,0.0247 -1.53e-4,0.0222 0.08141,-0.03 0.106949,-0.16267 0.203717,-0.16195 0.05743,-0.022 0.10464,-0.0674 0.163277,-0.0859 0.01206,-0.004 -0.01713,0.023 -0.01395,0.0353 0.0019,0.007 0.01634,0.003 0.02274,-0.002 0.03221,-0.0206 0.05445,-0.0574 0.09026,-0.0707 0.01553,-0.006 -0.01416,0.03 -0.02125,0.0449 0.113014,-0.0831 0.192331,-0.18647 0.312274,-0.26481 0.0045,-0.003 0.0083,0.0119 0.01318,0.01 0.02641,-0.0133 0.04779,-0.0348 0.07168,-0.0521 -0.130977,0.23362 0.191161,-0.22359 0.229949,-0.21056 0.05589,-0.0523 0.176258,-0.16332 0.251862,-0.20168 0.01183,-0.006 -0.0301,0.0352 -0.01685,0.036 0.04065,0.003 0.102544,-0.14404 0.0013,0.0491 0.0617,-0.0552 -0.01056,0.0127 0.100352,-0.15389 0.100353,-0.15073 0.226909,-0.28318 0.377608,-0.38384 -0.0011,0.13935 0.245803,-0.31878 0.211968,-0.12852 0.111609,-0.20914 0.234455,-0.41417 0.373666,-0.60645 0.134813,-0.14271 -0.08244,0.0913 0.143687,-0.18028 0.04101,-0.0493 0.09162,-0.0899 0.133345,-0.13855 0.02122,-0.0247 0.03472,-0.0572 0.06118,-0.0763 0.0072,-0.005 0.0075,0.0161 0.0113,0.0241 0.106952,-0.12915 0.105023,-0.3229 0.181731,-0.46947 0.114904,-0.266 0.248116,-0.52444 0.369554,-0.78672 0.09786,-0.18658 0.0244,-0.46279 0.08061,-0.66988 0.0072,-0.16307 -0.0084,-0.32413 -0.04024,-0.48444 -0.04331,-0.27923 -0.07235,-0.55647 -0.0828,-0.83885 -0.02048,-0.22935 -0.05196,-0.46154 -0.113057,-0.68332 -0.06607,-0.2275 -0.120181,-0.45933 -0.138546,-0.69601 -0.08032,-0.22239 -0.165777,-0.44178 -0.255836,-0.66041 -0.0688,-0.22844 -0.206545,-0.43209 -0.316458,-0.64227 -0.113742,-0.17891 -0.226033,-0.3582 -0.31823,-0.54947 -0.05248,-0.0646 -0.180438,-0.18648 -0.263279,-0.267 -0.172416,-0.15906 -0.348017,-0.31964 -0.538102,-0.4564 -0.199263,-0.13141 -0.392109,-0.27413 -0.566057,-0.437 -0.142753,-0.1108 -0.226491,-0.16284 -0.398474,-0.2275 -0.281682,-0.13858 -0.539831,-0.32124 -0.8395,-0.42319 -0.385094,-0.19152 -0.787927,-0.34015 -1.180861,-0.51463 -0.185343,-0.0688 -0.269916,-0.0937 -0.447106,-0.0933 -0.166798,8.2e-4 -0.334273,0.004 -0.500946,0.01 -0.06642,0.002 -0.134041,-0.004 -0.199136,0.01 -0.05415,0.0111 0.110546,-0.002 0.165819,-0.003 -0.552346,0.0218 -1.097951,0.0943 -1.644198,0.17765 -0.388068,0.0725 -0.780071,0.12009 -1.149197,0.26948 -0.201838,0.0732 -0.37559,0.18091 -0.566827,0.27735 -0.273877,0.13811 -0.560766,0.25002 -0.839837,0.37673 -0.472823,0.2314 -0.955302,0.46751 -1.354704,0.81566 -0.109726,0.0995 -0.180233,0.15657 -0.275499,0.26927 -0.218724,0.25874 -0.342171,0.57873 -0.537891,0.85323 -0.136229,0.20194 -0.27796,0.39916 -0.406207,0.60628 -0.05186,0.0838 -0.116824,0.16139 -0.152285,0.2533 -0.02014,0.0522 -0.02874,0.10816 -0.04311,0.16225 -0.09344,0.37416 -0.0195,0.76433 -0.04246,1.14558 -0.01072,0.44361 -0.03252,0.88695 -0.02736,1.33072 0.02492,0.33665 0.0435,0.67951 0.134934,1.0056 0.110457,0.31854 0.189907,0.64948 0.356698,0.94602 0.191051,0.32607 0.392616,0.64557 0.63932,0.9333 0.148003,0.18213 0.284778,0.36227 0.413858,0.55831 0.0188,0.0285 0.101946,-0.005 0.07368,0.0713 0.483089,0.33266 1.037619,0.53919 1.561171,0.79821 1.033718,0.48045 2.074577,0.95602 3.057296,1.53559 0.0887,0.061 -0.774353,1.31544 -0.863053,1.25441 z"
       inkscape:connector-curvature="0" />
    <path
       style="fill:#000000;fill-opacity:1;stroke:none;stroke-width:0.60299999;stroke-linecap:round;stroke-linejoin:round;stroke-miterlimit:4;stroke-dasharray:none;stroke-dashoffset:0;stroke-opacity:1"
       id="path4530"
       d="m 4.9144363,285.25089 c -0.1941767,-0.42669 -0.3354919,-0.97112 -0.07128,-1.40785 0.078773,-0.13021 0.1989135,-0.23037 0.2983701,-0.34555 0.096699,-0.0479 0.1839301,-0.12438 0.2900955,-0.1438 0.417672,-0.0764 0.8626258,-0.0528 1.2108399,0.21094 0.069631,0.0527 0.1281031,0.11878 0.1921547,0.17817 0.3290578,0.34172 0.3596931,0.74595 0.2921884,1.19187 -0.061185,0.24385 -0.069596,0.51762 -0.212539,0.73404 -0.062901,0.0952 -0.1483677,0.17347 -0.2225516,0.2602 -0.1806117,0.13988 -0.3826841,0.21747 -0.6084821,0.24339 -0.070664,0.008 -0.1487194,-0.003 -0.2212348,0.004 -0.455989,0.0728 -0.8631463,0.0804 -1.1883705,-0.28678 -0.054242,-0.0612 -0.096681,-0.13201 -0.1450221,-0.19802 -0.193054,-0.35571 -0.1556792,-0.72996 -0.081258,-1.10921 0.082764,-0.39379 0.3342963,-0.67863 0.6782504,-0.86982 0.3653843,-0.19746 0.7201818,-0.24953 1.1395413,-0.11429 0.1626759,0.0525 0.2899124,0.22891 0.3951267,0.35574 0.164624,0.21517 0.2636837,0.46718 0.3330609,0.72641 0.023011,0.10295 -1.4329555,0.42837 -1.4559658,0.32542 v 0 c -0.021024,-0.0782 -0.048403,-0.15882 -0.092451,-0.22662 0.044385,0.0622 0.07949,0.11824 0.1724538,0.14106 0.06343,0.0156 0.4557249,0.10579 0.4981726,-0.0209 0.011478,-0.0343 -0.135785,0.029 -0.1082056,0.007 -0.1354836,0.0574 -0.090319,0.0401 -0.064078,-0.0547 0.00151,-0.005 -0.015851,0.009 -0.016526,0.004 -0.00271,-0.0224 0.013295,-0.0451 0.00886,-0.0673 -0.00212,-0.0105 -0.011208,0.0183 -0.016812,0.0275 -0.01316,0.0726 -0.020397,0.11627 -0.035436,0.18633 -0.026745,0.12459 -0.03848,-0.002 -0.078808,-0.0494 -0.046558,-0.0614 -0.080877,-0.1328 -0.1723963,-0.14628 -0.6976444,-0.10278 -0.4824048,0.0222 -0.2904615,-0.008 0.1834759,-0.0302 -0.017624,0.004 0.1970662,-0.0359 0.1522709,-0.0281 0.2091872,-0.0427 0.1305652,0.10946 -0.044292,0.0823 -0.1031184,0.14939 -0.10292,0.24459 2.89e-5,0.0139 0.011115,-0.0258 0.013618,-0.0396 0.022095,-0.12113 0.029116,-0.24546 0.062213,-0.36476 0.019106,-0.0807 0.026598,-0.12001 0.034519,-0.11653 0.0033,0.001 0.049967,0.11169 0.055708,0.12465 0.00451,0.0102 0.025246,0.029 0.014184,0.0302 -0.01533,0.002 -0.024736,-0.0184 -0.037103,-0.0276 0.00735,0.01 0.025937,0.0179 0.022045,0.0296 -0.00502,0.015 -0.03149,-0.0173 -0.09202,-0.0174 -0.00488,-1e-5 -0.013023,0.0125 -0.00816,0.0121 0.4582192,-0.0338 0.3401552,0.0638 0.5070687,-0.14004 0.1084392,-0.22127 0.1114814,-0.1548 0.1160253,-0.3266 3.705e-4,-0.0136 -0.00547,0.0271 -0.00461,0.0407 0.00799,0.12642 0.02594,0.16379 0.053212,0.29735 0.00902,0.0442 0.016184,0.0887 0.024275,0.13307 0.035354,0.0999 -1.3775695,0.59988 -1.4129234,0.49997 z"
       inkscape:connector-curvature="0" />
    <path
       style="fill:#000000;fill-opacity:1;stroke:none;stroke-width:0.60299999;stroke-linecap:round;stroke-linejoin:round;stroke-miterlimit:4;stroke-dasharray:none;stroke-dashoffset:0;stroke-opacity:1"
       id="path4532"
       d="m 12.059811,284.29194 c -0.02501,-0.49537 0.0884,-1.01874 0.420834,-1.40386 0.07283,-0.0844 0.162532,-0.15258 0.243799,-0.22887 0.452263,-0.25772 0.619982,-0.25557 1.168627,-0.14281 0.111585,0.0229 0.2097,0.12326 0.320215,0.15827 0.318876,0.19157 0.462986,0.46808 0.559523,0.81803 0.03686,0.20596 0.09386,0.4045 0.118189,0.61314 0.04555,0.33725 -0.07686,0.63096 -0.247622,0.91105 -0.339277,0.45164 -0.761783,0.52389 -1.318197,0.43481 -0.111982,-0.0486 -0.312639,-0.0256 -0.422223,-0.0554 -0.10268,-0.0279 -0.19845,-0.0783 -0.293654,-0.12414 -0.463414,-0.33482 -0.472258,-0.76065 -0.37352,-1.26439 0.05412,-0.19654 0.138599,-0.36459 0.260606,-0.52812 0.02555,-0.0342 0.164237,-0.169 0.191829,-0.19927 0.05952,-0.0483 0.119044,-0.0965 0.178566,-0.14482 0.08261,-0.0616 0.954231,1.10661 0.871623,1.16825 v 0 c 0.0231,-0.0301 0.0462,-0.0601 0.0693,-0.0902 0.009,-0.0911 -0.09189,0.10971 -0.09009,0.0882 0.0021,-0.0249 0.02267,-0.0466 0.02257,-0.0716 -7.6e-5,-0.0183 -0.01267,0.0538 -0.03348,0.0433 -0.01353,0.0563 -0.01367,0.11901 -0.04482,0.16783 -0.0032,0.005 -0.01233,-0.004 -0.01452,-0.01 -0.01661,-0.0413 -0.0201,-0.0878 -0.04061,-0.1273 -0.09384,-0.18081 -0.102402,-0.17099 -0.231959,-0.28366 0.0062,-0.002 0.01548,-0.001 0.01872,-0.007 0.0035,-0.006 -0.01015,-0.021 -0.003,-0.0213 0.144681,-0.005 0.289174,0.0619 0.434332,0.0604 0.01614,-8.7e-4 0.06452,-0.004 0.04842,-0.003 -0.319899,0.0269 -0.349701,-0.04 -0.484641,0.17407 -0.01013,0.0161 -0.0365,0.0401 -0.02212,0.0525 0.01367,0.0118 0.02403,-0.027 0.03604,-0.0405 -0.05158,0.19301 0.01379,-0.0634 0.01739,0.0205 0.0011,0.0248 -0.0045,0.0499 -9e-4,0.0744 0.0046,0.0308 0.0033,-0.10524 0.005,-0.0931 -0.01037,-0.15269 -0.102039,-0.2916 -0.100575,-0.44666 -0.0017,-0.0185 -0.01907,-0.0702 -0.0081,-0.0552 0.02619,0.036 0.04466,0.077 0.06954,0.11393 0.01239,0.0184 0.05404,0.0329 0.04202,0.0515 -0.01145,0.0177 -0.03331,-0.0286 -0.05391,-0.0331 -0.01,-0.002 0.01165,0.0167 0.01748,0.0251 -0.04713,-0.0232 -0.09193,-0.0698 -0.144096,-0.0637 -0.0075,8.7e-4 0.0034,0.0189 0.01093,0.0198 0.432528,0.05 0.366525,0.11544 0.538845,-0.11885 0.0012,-0.0172 0.01988,-0.046 0.0036,-0.0516 -0.02354,-0.008 -0.07247,0.0754 -0.09623,0.13189 -0.06499,0.15451 -0.09703,0.31983 -0.140841,0.48079 0,0.10627 -1.502881,0.10627 -1.502881,0 z"
       inkscape:connector-curvature="0" />
    <path
       style="fill:#000000;fill-opacity:1;stroke:none;stroke-width:0.60299999;stroke-linecap:round;stroke-linejoin:round;stroke-miterlimit:4;stroke-dasharray:none;stroke-dashoffset:0;stroke-opacity:1"
       id="path4564"
       d="m 5.7000684,287.51063 c 0.1350582,0.12361 0.2518212,0.27082 0.4051745,0.37083 0.091897,0.0599 0.2069496,0.0748 0.3141242,0.0983 0.067779,0.0148 0.2425414,0.0759 0.2075415,0.0159 -0.050474,-0.0864 -0.1721787,-0.12991 -0.272184,-0.12659 -0.1278379,0.004 -0.22659,0.14017 -0.3542948,0.14738 -0.083935,0.005 0.1401884,-0.0928 0.2102829,-0.13924 0.2360676,0.21732 0.4958426,0.002 0.7398448,0.0405 0.034883,0.005 0.057787,0.044 0.092106,0.0523 0.021669,0.005 0.044351,-0.0217 0.065348,-0.0142 0.047595,0.017 0.08464,0.0552 0.1269598,0.0829 0.115158,0.0281 0.2303161,0.0561 0.3454741,0.0842 0.1775042,0.0657 0.322371,-0.11968 0.4888238,-0.10794 0.083461,0.006 0.1487019,0.0831 0.2309858,0.0982 0.2207744,0.0407 0.3491841,-0.0359 0.5599877,-0.083 0.081719,-0.0183 0.1650418,-0.0284 0.2475626,-0.0426 0.083582,0.0399 0.1583553,0.11308 0.2507446,0.11983 0.092036,0.007 0.1745194,-0.0611 0.2643569,-0.0822 0.055937,-0.0131 0.1153252,-0.007 0.1712028,-0.0201 0.076604,-0.0183 0.1480781,-0.0544 0.2242134,-0.0746 0.167234,-0.0444 0.361641,-0.0503 0.528548,-0.0649 0.252,-0.0315 0.240675,-0.007 0.443061,-0.10324 0.07549,-0.036 0.142357,-0.0905 0.221187,-0.11843 0.114235,-0.0405 0.232888,-0.0729 0.353461,-0.0852 0.14993,-0.0152 0.01102,0.14635 0.127805,-0.0406 0.414888,0.082 -0.05577,0.098 -0.0879,0.0763 -0.05089,-0.0344 0.118039,-0.0342 0.177186,-0.0508 0.09094,-0.0256 0.185559,-0.0403 0.273079,-0.0758 0.231192,-0.0939 -0.173833,-0.0679 0.218765,-0.0589 0.09235,-0.0425 0.434954,-0.20381 0.498459,-0.21247 0.0285,-0.004 0.06766,0.061 0.04257,0.0751 -0.04754,0.0267 -0.128417,0.0345 -0.163347,-0.007 -0.02583,-0.0309 0.05354,-0.062 0.08794,-0.083 0.101239,-0.0618 0.210661,-0.1091 0.315993,-0.16365 -0.08763,0.0621 -0.175267,0.12412 -0.2629,0.18618 0.647589,-0.63815 1.550078,0.27768 0.902489,0.91583 v 0 c -0.103443,0.0805 -0.206886,0.16097 -0.310329,0.24145 0.06245,-0.0155 0.138345,-0.005 0.187358,-0.0466 0.02718,-0.0231 -0.07308,-0.0413 -0.104322,-0.024 -0.318664,0.17578 -0.206482,0.27564 -0.527865,0.34179 -0.0589,0.0121 0.103529,-0.40367 -0.171246,-0.0567 -0.08327,0.0612 -0.313606,0.28332 -0.468425,0.22074 -0.03939,-0.0159 0.03812,-0.0766 0.06421,-0.11011 0.0038,-0.005 0.01375,0.0124 0.0089,0.0162 -0.104532,0.0802 -0.204824,0.17054 -0.324363,0.22599 -0.02125,0.01 -0.0098,-0.0458 -0.01463,-0.0687 -0.161868,0.0772 -0.174564,0.1018 -0.394541,0.0904 -0.213656,-0.0111 0.06964,-0.14726 -0.26013,-0.0364 -0.107053,0.036 -0.197343,0.11187 -0.303229,0.15115 -0.09679,0.0359 -0.200661,0.0487 -0.300991,0.073 -0.499016,-0.1006 0.07975,-0.0408 -0.503897,0.15294 -0.08698,0.0289 -0.184191,-0.0299 -0.2745438,-0.0145 -0.1333672,0.0226 -0.2512648,0.1106 -0.3856006,0.12648 -0.1581526,0.0187 -0.3096384,-0.12045 -0.4732639,-0.0654 -0.4663543,0.11166 0.018709,0.0297 -0.5294275,-0.004 -0.2768989,-0.0168 -0.3727315,0.0578 -0.6508634,0.0652 -0.1061701,0.003 -0.2113597,-0.0252 -0.3175651,-0.026 -0.08182,-5.6e-4 -0.1629836,0.0147 -0.2444752,0.022 -0.2799199,-0.21366 0.1242438,0.0506 -0.3616294,-0.0294 -0.096009,-0.0158 -0.1713555,-0.0922 -0.2570334,-0.13837 -0.071989,0.002 -0.1440913,0.0107 -0.2159664,0.006 -0.051686,-0.003 -0.2015855,-0.0128 -0.1525439,-0.0295 0.1124677,-0.0382 0.2361128,-0.026 0.3541694,-0.0389 0.1154768,0.0375 0.9672224,0.28686 -0.4077322,0.2052 -0.3709966,-0.022 -0.2117439,-0.19884 -0.3998642,-0.3063 -0.1141564,-0.0652 -0.2376522,-0.1127 -0.358784,-0.16379 -0.1628391,-0.0687 -0.3285736,-0.13031 -0.4928605,-0.19546 -0.844051,-0.42202 -0.2472169,-1.61569 0.5968343,-1.19367 z"
       inkscape:connector-curvature="0" />
  </g>
</svg>
